<?xml version="1.0" encoding="utf-8"?>
<!-- Generator: Adobe Illustrator 24.1.1, SVG Export Plug-In . SVG Version: 6.00 Build 0)  -->
<svg version="1.1" id="Capa_1" xmlns="http://www.w3.org/2000/svg" xmlns:xlink="http://www.w3.org/1999/xlink" x="0px" y="0px"
	 viewBox="0 0 268.9 104.2" style="enable-background:new 0 0 268.9 104.2;" xml:space="preserve">
<style type="text/css">
	.st0{clip-path:url(#SVGID_2_);}
	.st1{clip-path:url(#SVGID_4_);}
	.st2{fill:#72BCC3;}
	.st3{fill:#C81E59;}
	.st4{fill:#F0E957;}
	.st5{fill:#FFFFFF;}
	.st6{fill:#B9BBBC;}
	.st7{fill:#2B3542;}
</style>
<g>
	<defs>
		<rect id="SVGID_1_" x="1" y="-5" width="267.9" height="109.2"/>
	</defs>
	<clipPath id="SVGID_2_">
		<use xlink:href="#SVGID_1_"  style="overflow:visible;"/>
	</clipPath>
	<g class="st0">
		<defs>
			<rect id="SVGID_3_" x="1" y="-5" width="469.3" height="109.2"/>
		</defs>
		<clipPath id="SVGID_4_">
			<use xlink:href="#SVGID_3_"  style="overflow:visible;"/>
		</clipPath>
		<g class="st1">
			<g>
				<g>
					<g>
						<g>
							<g>
								<path class="st2" d="M179.4,56.4c-0.7,1.7-1.9,2.6-3.5,2.7l-6.1-0.1c-1.9-0.1-2.4-1.3-1.4-3.4l20.2-50
									c1-2.4,3.4-3.6,7.1-3.6c3.7,0,6.1,1.1,7,3.4l15.5,38.7l15.6-38.5c1-2.4,3.3-3.6,7-3.6c3.8,0,6.1,1.1,7,3.4l20,50.1
									c1,2.2,0.4,3.4-1.7,3.5h-5.8c-1.6-0.1-2.8-1-3.4-2.7l-14.1-36.8c-1.3-4.2-2.6-4.2-3.9,0l-13.6,35.1
									c-1.9,2.9-3.8,4.4-5.6,4.4H216c-1.7,0-3.3-1.4-5-4.2l-13.4-35.3c-1.4-4.1-2.7-4.1-3.9,0L179.4,56.4z"/>
							</g>
							<g>
								<path class="st2" d="M95.9,7.8c0-3.7,1.9-5.6,5.8-5.7c3.9-0.1,5.8,1.8,5.6,5.7v45.5c0.2,3.9-1.7,5.8-5.6,5.7
									c-3.8,0-5.8-1.9-5.8-5.7C95.9,53.3,95.9,7.8,95.9,7.8z"/>
							</g>
						</g>
					</g>
					<path class="st2" d="M166.1,12.2L166.1,12.2l0-4.4c0.2-3.8-1.7-5.7-5.6-5.7c-3.8,0.1-5.8,2-5.8,5.7v15.9h-22.9
						c-3.9,0-7.1,0.3-9.6,0.8c-2.6,0.5-4.6,1.4-6.1,2.6c-1.5,1.2-2.6,2.8-3.2,4.7c-0.6,2-1,4.4-1,7.2v4.8c0,2.8,0.3,5.2,1,7.2
						c0.6,1.9,1.7,3.5,3.2,4.7c1.5,1.2,3.6,2.1,6.1,2.6c2.6,0.5,5.8,0.8,9.6,0.8h14.4c3.9,0,7.1-0.3,9.6-0.8
						c2.5-0.5,4.6-1.4,6.1-2.6c1.5-1.2,2.6-2.8,3.2-4.7c0.6-1.8,0.9-4,0.9-6.5c0-0.2,0-0.3,0-0.5c0-0.1,0-0.1,0-0.2V12.2z
						 M152.9,49.5c-0.7,0.5-1.6,0.9-2.7,1.1c-1.1,0.2-2.6,0.3-4.4,0.3h-12.7c-2,0-3.7-0.1-5-0.3c-1.3-0.2-2.3-0.5-3.1-1
						c-0.8-0.5-1.3-1.3-1.6-2.2c-0.3-1-0.4-2.2-0.4-3.8v-4.2c0-1.6,0.1-2.8,0.4-3.8c0.3-1,0.8-1.7,1.6-2.2c0.8-0.5,1.8-0.9,3.1-1
						c1.3-0.2,2.9-0.3,4.9-0.3h21.5v11.5c0,0.3,0,0.6,0,0.9c0,1.1-0.2,2.1-0.4,2.9C154.1,48.2,153.6,48.9,152.9,49.5z"/>
					<g>
						<path class="st3" d="M84,31.5l-0.7,6.2c-0.1,1.5-1.3,2.8-2.8,2.8c-1.1,0-8.2,0.1-12.4,0.1L66,65.2h11.8c1.5,0,2.8,1.1,2.8,2.5
							c0,0.1,0,0.1,0,0.3l-0.7,6.4c-0.1,1.5-1.3,2.8-2.8,2.8H64.9l-2.1,24.4c-0.1,1.4-1,2.6-2.5,2.6h-11c-1.4,0-2.2-1.1-2.2-2.4
							c0-0.1,0-0.1,0-0.3l2.1-24.4H31.1l-2.1,24.4c-0.1,1.4-1.1,2.6-2.5,2.6H15.4c-1.2,0-2.2-1.1-2.2-2.4c0-0.1,0-0.1,0-0.3
							l2.1-24.4H3.8c-1.4,0-2.8-1.1-2.8-2.5c0-0.1,0-0.1,0-0.3L1.7,68c0.1-1.5,1.2-2.8,2.8-2.8h11.9l2.2-24.6L7.4,40.5
							c-1.4,0-2.8-1.1-2.8-2.5c0-0.1,0-0.1,0-0.3l0.7-6.2c0.1-1.5,1.3-2.8,2.8-2.8h11.5l2.2-25c0.1-1.4,1.3-2.6,2.6-2.6h11.1
							c1.2,0,2.1,1.1,2.1,2.4c0,0.1,0,0.1,0,0.3l-2.2,25h18.1l2.2-25c0.1-1.4,1.1-2.6,2.6-2.6h11c1.4,0,2.1,1.1,2.1,2.4v0.3l-2.2,25
							h12.1c1.4,0,2.8,1.1,2.8,2.5C84,31.3,84,31.3,84,31.5z M34.5,40.6l-2.2,24.6h18.1l2.2-24.6C52.5,40.6,34.5,40.6,34.5,40.6z"/>
					</g>
					<g>
						<path class="st4" d="M203.9,63H196c-0.1,0-0.2,0-0.3,0h-7.3v0h-0.8c-2.6-0.1-3.9,1.2-3.8,3.8c0.1,2.6,1.3,3.9,3.8,3.9h7.8
							c0.3,0,0.5,0,0.8-0.1h6.9c1.5,0,2.4,0.3,3,0.8c0.5,0.6,0.8,1.6,0.8,3.2v1c0,1.5-0.3,2.5-0.8,3c-0.5,0.5-1.6,0.8-3.2,0.8h-23.3
							c-2.6,0-4.6,0.2-6.3,0.7c-1.6,0.4-2.9,1.1-3.8,2c-0.9,0.9-1.6,2-1.9,3.4c-0.4,1.4-0.5,3-0.5,4.9v12.8H181h29.5h1
							c2.6,0,3.8-1.3,3.8-3.9c0-2.6-1.2-3.9-3.8-3.8H181c-0.3,0-0.5,0-0.7,0h-4.9v-4.8c0-1.8,0.3-3,1-3.6c0.7-0.6,1.9-0.9,3.8-0.9
							h23.4c2.2,0,4.1-0.2,5.6-0.5c1.5-0.3,2.7-0.9,3.6-1.6c0.9-0.8,1.5-1.8,1.9-3s0.6-2.8,0.6-4.7v-2c0-4.1-0.9-7.1-2.7-8.8
							C210.7,63.9,207.8,63,203.9,63z"/>
						<path class="st4" d="M267.4,70.4c-0.5-1.8-1.3-3.2-2.5-4.3c-1.2-1.1-2.8-1.9-4.7-2.4c-2-0.5-4.4-0.7-7.4-0.7H237
							c-3,0-5.4,0.2-7.4,0.7c-2,0.5-3.5,1.3-4.7,2.4c-1.2,1.1-2,2.5-2.5,4.3c-0.5,1.8-0.7,3.9-0.7,6.4v12.6c0,2.6,0.2,4.7,0.7,6.5
							c0.5,1.8,1.3,3.2,2.5,4.3s2.8,1.9,4.7,2.4c2,0.5,4.4,0.7,7.4,0.7h15.7c3,0,5.5-0.2,7.4-0.7c2-0.5,3.5-1.3,4.7-2.4
							s2-2.5,2.5-4.3c0.5-1.8,0.7-3.9,0.7-6.5V76.8C268.1,74.3,267.9,72.2,267.4,70.4z M259.1,89.1c0,1.3-0.1,2.4-0.3,3.2
							c-0.2,0.8-0.6,1.5-1.1,2c-0.5,0.5-1.2,0.8-2.1,1c-0.9,0.2-2,0.3-3.3,0.3h-14.9c-1.4,0-2.6-0.1-3.5-0.3c-0.9-0.2-1.6-0.5-2.1-1
							c-0.5-0.5-0.9-1.2-1-2c-0.2-0.8-0.3-1.9-0.3-3.2V77.2c0-1.3,0.1-2.3,0.3-3.1c0.2-0.8,0.5-1.5,1-2c0.5-0.5,1.2-0.9,2.1-1.1
							c0.9-0.2,2-0.3,3.5-0.3h14.9c1.3,0,2.4,0.1,3.3,0.3c0.9,0.2,1.6,0.6,2.1,1.1c0.5,0.5,0.9,1.2,1.1,2c0.2,0.8,0.3,1.9,0.3,3.1
							V89.1z"/>
					</g>
				</g>
				<g>
					<path class="st3" d="M283.3,93.3l-0.2,1.2c0,0.2-0.1,0.3-0.3,0.3c0,0,0,0,0,0h0c-0.5,0-1.2-0.1-1.9-0.1c-0.9,0-1.7,0.5-2,2.2
						l-0.3,1.6c-0.1,0.3-0.1,0.5-0.1,0.8c0,1.1,0.6,1.4,1.3,1.4c0.7,0,1.4-0.1,1.9-0.1c0,0,0,0,0,0c0.1,0,0.2,0.1,0.2,0.2
						c0,0,0,0,0,0.1l-0.2,1.2c0,0.2-0.1,0.2-0.3,0.3c-0.3,0.1-1,0.2-1.9,0.2c-1.7,0-3.2-1-3.2-3.1c0-0.3,0-0.6,0.1-0.9l0.3-1.6
						c0.6-3.4,2.5-4.1,4.5-4.1c0.9,0,1.6,0.1,1.9,0.2C283.2,93,283.3,93.1,283.3,93.3C283.3,93.2,283.3,93.2,283.3,93.3
						C283.3,93.3,283.3,93.3,283.3,93.3z"/>
					<path class="st3" d="M291.8,96.9l-0.3,1.5c-0.5,3-2.1,4.1-4.5,4.1c-1.8,0-3.1-1-3.1-3.1c0-0.3,0-0.6,0.1-1l0.3-1.5
						c0.6-3.2,2.4-4.1,4.5-4.1c1.7,0,3.1,0.9,3.1,3.1C291.9,96.2,291.9,96.5,291.8,96.9z M288.4,94.7c-1.1,0-1.7,0.6-2,2.2l-0.3,1.5
						c-0.1,0.3-0.1,0.6-0.1,0.9c0,1,0.4,1.3,1.3,1.3c1.1,0,1.7-0.7,2-2.2l0.3-1.5c0.1-0.3,0.1-0.6,0.1-0.8
						C289.7,95.1,289.2,94.7,288.4,94.7z"/>
					<path class="st3" d="M302.2,93.1l-1.5,8.8c-0.1,0.3-0.3,0.5-0.6,0.5H299c-0.3,0-0.6-0.1-0.7-0.4l-2.1-5c0-0.1-0.1-0.1-0.1-0.1
						c0,0-0.1,0-0.1,0.1l-0.9,5.2c0,0.1-0.2,0.3-0.3,0.3h-1.5c-0.1,0-0.2-0.1-0.2-0.2c0,0,0,0,0,0l1.5-8.8c0.1-0.3,0.3-0.5,0.6-0.5
						h1c0.3,0,0.6,0.1,0.7,0.4l2.2,5.3c0,0.1,0,0.1,0.1,0.1c0,0,0.1,0,0.1-0.1l1-5.4c0-0.1,0.2-0.2,0.3-0.2h1.5
						C302.1,92.9,302.2,93,302.2,93.1C302.2,93.1,302.2,93.1,302.2,93.1z"/>
					<path class="st3" d="M310.4,93.2l-0.2,1.2c0,0.1-0.2,0.3-0.3,0.3h-2.6c-0.5,0-0.8,0.1-1,0.9l-0.2,1.2h3.3
						c0.1,0,0.2,0.1,0.2,0.2c0,0,0,0,0,0l-0.2,1.2c0,0.1-0.2,0.3-0.3,0.3h-3.3l-0.2,1.4c0,0.1,0,0.2,0,0.3c0,0.4,0.2,0.5,0.7,0.5
						h2.6c0.1,0,0.2,0.1,0.2,0.2c0,0,0,0,0,0l-0.2,1.2c0,0.2-0.1,0.2-0.3,0.3c-0.5,0.1-1.1,0.2-2.5,0.2c-1.3,0-2.7-0.5-2.7-2.1
						c0-0.2,0-0.4,0.1-0.6l0.8-4.2c0.4-2.5,1.9-2.7,3.6-2.7c1.4,0,2,0.1,2.4,0.2C310.4,93,310.4,93,310.4,93.2
						C310.4,93.1,310.4,93.2,310.4,93.2z"/>
					<path class="st3" d="M318.4,93.3l-0.2,1.2c0,0.2-0.1,0.3-0.3,0.3c0,0,0,0,0,0h0c-0.5,0-1.2-0.1-1.9-0.1c-0.9,0-1.7,0.5-2,2.2
						l-0.3,1.6c-0.1,0.3-0.1,0.5-0.1,0.8c0,1.1,0.6,1.4,1.3,1.4c0.7,0,1.4-0.1,1.9-0.1c0,0,0,0,0,0c0.1,0,0.2,0.1,0.2,0.2
						c0,0,0,0,0,0.1l-0.2,1.2c0,0.2-0.1,0.2-0.3,0.3c-0.3,0.1-1,0.2-1.9,0.2c-1.7,0-3.2-1-3.2-3.1c0-0.3,0-0.6,0.1-0.9l0.3-1.6
						c0.6-3.4,2.5-4.1,4.5-4.1c0.9,0,1.6,0.1,1.9,0.2C318.4,93,318.4,93.1,318.4,93.3C318.4,93.2,318.4,93.2,318.4,93.3
						C318.4,93.3,318.4,93.3,318.4,93.3z"/>
					<path class="st3" d="M326.8,93.1l-0.2,1.3c0,0.1-0.2,0.2-0.3,0.2h-2.1l-1.3,7.4c0,0.1-0.2,0.3-0.3,0.3h-1.7
						c-0.1,0-0.2-0.1-0.2-0.2c0,0,0,0,0-0.1l1.3-7.4h-2.1c-0.1,0-0.2-0.1-0.2-0.2c0,0,0,0,0-0.1l0.2-1.3c0-0.1,0.2-0.2,0.3-0.2h6.3
						C326.7,92.9,326.8,93,326.8,93.1C326.8,93.1,326.8,93.1,326.8,93.1z"/>
					<path class="st3" d="M333.3,102.4h-1.8c-0.1,0-0.2-0.1-0.2-0.2l-0.1-2.1h-2.6l-0.8,2.1c-0.1,0.1-0.2,0.2-0.3,0.2h-1.8
						c-0.1,0-0.2-0.1-0.2-0.2c0,0,0-0.1,0-0.1l3.3-7.9c0.5-1.2,1.5-1.4,2.4-1.4s1.8,0.2,1.9,1.4l0.5,7.9v0
						C333.6,102.3,333.5,102.4,333.3,102.4z M331.1,94.8c0-0.1,0-0.2-0.1-0.2s-0.2,0.1-0.2,0.2l-1.4,3.5h1.9L331.1,94.8z"/>
					<path class="st3" d="M343.5,96.8l-0.3,1.7c-0.5,2.9-2,4-4.8,4c-1.1,0-2.2-0.1-2.7-0.2c-0.2,0-0.3-0.1-0.3-0.3c0,0,0-0.1,0-0.1
						l1.5-8.5c0.1-0.3,0.2-0.4,0.4-0.4c0.5-0.1,1.7-0.2,2.8-0.2c2.1,0,3.5,1.1,3.5,3.1C343.6,96.2,343.5,96.5,343.5,96.8z
						 M339.8,94.6c-0.3,0-0.7,0-0.9,0l-1.1,6c0.2,0,0.6,0,0.9,0c1.2,0,2-0.5,2.3-2.2l0.3-1.7c0.1-0.3,0.1-0.5,0.1-0.8
						C341.4,94.9,340.7,94.6,339.8,94.6z"/>
					<path class="st3" d="M353,96.9l-0.3,1.5c-0.5,3-2.1,4.1-4.5,4.1c-1.8,0-3.1-1-3.1-3.1c0-0.3,0-0.6,0.1-1l0.3-1.5
						c0.6-3.2,2.4-4.1,4.5-4.1c1.7,0,3.1,0.9,3.1,3.1C353.1,96.2,353.1,96.5,353,96.9z M349.6,94.7c-1.1,0-1.7,0.6-2,2.2l-0.3,1.5
						c-0.1,0.3-0.1,0.6-0.1,0.9c0,1,0.4,1.3,1.3,1.3c1.1,0,1.7-0.7,2-2.2l0.3-1.5c0.1-0.3,0.1-0.6,0.1-0.8
						C350.9,95.1,350.5,94.7,349.6,94.7z"/>
					<path class="st3" d="M361.7,93.3l-0.2,1.3c0,0.1-0.1,0.2-0.3,0.2c0,0,0,0,0,0c-0.4,0-1.8-0.1-2.7-0.1c-0.6,0-1.1,0.1-1.1,0.8
						c0,0.3,0.1,0.4,0.7,0.7l1.5,1c1,0.6,1.4,1.3,1.4,2c0,2.3-1.8,3.3-4,3.3c-1,0-1.8-0.1-2.4-0.3c-0.1,0-0.2-0.1-0.2-0.2
						c0,0,0,0,0,0l0.2-1.3c0-0.2,0.1-0.2,0.3-0.2c0,0,0,0,0,0c0.5,0.1,1.9,0.2,2.4,0.2c0.7,0,1.3-0.2,1.3-1c0-0.3-0.2-0.6-0.7-0.9
						l-1.6-1c-0.8-0.5-1.1-1.3-1.1-2c0-2.2,1.8-2.9,3.8-2.9c0.9,0,2.2,0.2,2.7,0.3C361.6,93.1,361.7,93.1,361.7,93.3
						C361.7,93.2,361.7,93.3,361.7,93.3z"/>
					<path class="st3" d="M373.6,93.3l-0.2,1.2c0,0.2-0.1,0.3-0.3,0.3c0,0,0,0,0,0h0c-0.5,0-1.2-0.1-1.9-0.1c-0.9,0-1.7,0.5-2,2.2
						l-0.3,1.6c-0.1,0.3-0.1,0.5-0.1,0.8c0,1.1,0.6,1.4,1.3,1.4c0.7,0,1.4-0.1,1.9-0.1c0,0,0,0,0,0c0.1,0,0.2,0.1,0.2,0.2
						c0,0,0,0,0,0.1l-0.2,1.2c0,0.2-0.1,0.2-0.3,0.3c-0.3,0.1-1,0.2-1.9,0.2c-1.7,0-3.2-1-3.2-3.1c0-0.3,0-0.6,0.1-0.9l0.3-1.6
						c0.6-3.4,2.5-4.1,4.5-4.1c0.9,0,1.6,0.1,1.9,0.2C373.5,93,373.6,93.1,373.6,93.3C373.6,93.2,373.6,93.2,373.6,93.3
						C373.6,93.3,373.6,93.3,373.6,93.3z"/>
					<path class="st3" d="M382.1,96.9l-0.3,1.5c-0.5,3-2.1,4.1-4.5,4.1c-1.8,0-3.1-1-3.1-3.1c0-0.3,0-0.6,0.1-1l0.3-1.5
						c0.6-3.2,2.4-4.1,4.5-4.1c1.7,0,3.1,0.9,3.1,3.1C382.2,96.2,382.2,96.5,382.1,96.9z M378.7,94.7c-1.1,0-1.7,0.6-2,2.2l-0.3,1.5
						c-0.1,0.3-0.1,0.6-0.1,0.9c0,1,0.4,1.3,1.3,1.3c1.1,0,1.7-0.7,2-2.2l0.3-1.5c0.1-0.3,0.1-0.6,0.1-0.8
						C380,95.1,379.6,94.7,378.7,94.7z"/>
					<path class="st3" d="M392.5,93.1l-1.5,8.8c-0.1,0.3-0.3,0.5-0.6,0.5h-1.1c-0.3,0-0.6-0.1-0.7-0.4l-2.1-5c0-0.1-0.1-0.1-0.1-0.1
						c0,0-0.1,0-0.1,0.1l-0.9,5.2c0,0.1-0.2,0.3-0.3,0.3h-1.5c-0.1,0-0.2-0.1-0.2-0.2c0,0,0,0,0,0l1.5-8.8c0.1-0.3,0.3-0.5,0.6-0.5
						h1c0.3,0,0.6,0.1,0.7,0.4l2.2,5.3c0,0.1,0,0.1,0.1,0.1c0,0,0.1,0,0.1-0.1l1-5.4c0-0.1,0.2-0.2,0.3-0.2h1.5
						C392.4,92.9,392.5,93,392.5,93.1C392.5,93.1,392.5,93.1,392.5,93.1z"/>
					<path class="st3" d="M404.6,93.2l-0.2,1.2c0,0.1-0.2,0.3-0.3,0.3h-2.6c-0.5,0-0.8,0.1-1,0.9l-0.2,1.2h3.3
						c0.1,0,0.2,0.1,0.2,0.2c0,0,0,0,0,0l-0.2,1.2c0,0.1-0.2,0.3-0.3,0.3H400l-0.2,1.4c0,0.1,0,0.2,0,0.3c0,0.4,0.2,0.5,0.7,0.5h2.6
						c0.1,0,0.2,0.1,0.2,0.2c0,0,0,0,0,0l-0.2,1.2c0,0.2-0.1,0.2-0.3,0.3c-0.5,0.1-1.1,0.2-2.5,0.2c-1.3,0-2.7-0.5-2.7-2.1
						c0-0.2,0-0.4,0.1-0.6l0.8-4.2c0.4-2.5,1.9-2.7,3.6-2.7c1.4,0,2,0.1,2.4,0.2C404.5,93,404.6,93,404.6,93.2
						C404.6,93.1,404.6,93.2,404.6,93.2z"/>
					<path class="st3" d="M411,100.9l-0.2,1.2c0,0.2-0.1,0.2-0.3,0.3c-0.4,0.1-1.4,0.2-2.1,0.2c-1.4,0-2.7-0.5-2.7-2.1
						c0-0.2,0-0.4,0.1-0.6l1.2-6.6c0-0.1,0.2-0.3,0.3-0.3h1.7c0.1,0,0.2,0.1,0.2,0.2c0,0,0,0,0,0.1l-1.2,6.6c0,0.1,0,0.2,0,0.3
						c0,0.4,0.2,0.5,0.7,0.5h2.2C410.9,100.6,411,100.7,411,100.9C411,100.9,411,100.9,411,100.9z"/>
					<path class="st3" d="M423.8,93.2l-0.2,1.2c0,0.1-0.2,0.3-0.3,0.3h-2.6c-0.6,0-0.9,0.2-1,0.9l-0.2,1.2h3.3
						c0.1,0,0.2,0.1,0.2,0.2c0,0,0,0,0,0.1l-0.2,1.2c0,0.1-0.2,0.3-0.3,0.3h-3.3l-0.6,3.7c0,0.1-0.2,0.3-0.3,0.3h-1.7
						c-0.1,0-0.2-0.1-0.2-0.2c0,0,0,0,0-0.1l1.2-6.6c0.4-2.4,1.8-2.7,3.6-2.7c1.4,0,2,0.1,2.4,0.2C423.7,93,423.8,93,423.8,93.2
						C423.8,93.2,423.8,93.2,423.8,93.2z"/>
					<path class="st3" d="M433.4,93.1l-1,5.7c-0.6,3.2-2.3,3.7-4.3,3.7c-1.8,0-3.1-0.8-3.1-2.8c0-0.3,0-0.6,0.1-0.9l1-5.7
						c0-0.1,0.2-0.2,0.3-0.2h1.7c0.1,0,0.2,0.1,0.2,0.2c0,0,0,0,0,0l-1,5.7c-0.1,0.3-0.1,0.5-0.1,0.8c0,0.8,0.4,1.1,1.3,1.1
						c1.1,0,1.6-0.6,1.8-1.9l1-5.7c0-0.1,0.2-0.2,0.3-0.2h1.7C433.3,92.9,433.4,93,433.4,93.1C433.4,93.1,433.4,93.1,433.4,93.1z"/>
					<path class="st3" d="M442.1,93.1l-0.2,1.3c0,0.1-0.2,0.2-0.3,0.2h-2.1l-1.3,7.4c0,0.1-0.2,0.3-0.3,0.3h-1.7
						c-0.1,0-0.2-0.1-0.2-0.2c0,0,0,0,0-0.1l1.3-7.4h-2.1c-0.1,0-0.2-0.1-0.2-0.2c0,0,0,0,0-0.1l0.2-1.3c0-0.1,0.2-0.2,0.3-0.2h6.3
						C442,92.9,442.1,93,442.1,93.1C442.1,93.1,442.1,93.1,442.1,93.1z"/>
					<path class="st3" d="M451.3,93.1l-1,5.7c-0.6,3.2-2.3,3.7-4.3,3.7c-1.8,0-3.1-0.8-3.1-2.8c0-0.3,0-0.6,0.1-0.9l1-5.7
						c0-0.1,0.2-0.2,0.3-0.2h1.7c0.1,0,0.2,0.1,0.2,0.2c0,0,0,0,0,0l-1,5.7c-0.1,0.3-0.1,0.5-0.1,0.8c0,0.8,0.4,1.1,1.3,1.1
						c1.1,0,1.6-0.6,1.8-1.9l1-5.7c0-0.1,0.2-0.2,0.3-0.2h1.7C451.2,92.9,451.3,93,451.3,93.1C451.3,93.1,451.3,93.1,451.3,93.1z"/>
					<path class="st3" d="M458.1,98.5l1.3,3.6c0,0,0,0.1,0,0.1c0,0.1-0.1,0.2-0.2,0.2h-1.9c-0.1,0-0.2-0.1-0.2-0.3l-1.1-3.2
						c0,0,0,0,0,0c-0.1,0-0.1,0-0.2,0c-0.3,0-0.7,0-0.9,0l-0.6,3.2c0,0.1-0.2,0.3-0.3,0.3h-1.7c-0.1,0-0.2-0.1-0.2-0.2c0,0,0,0,0,0
						v0l1.5-8.6c0.1-0.4,0.3-0.6,0.7-0.6c0.6-0.1,1.7-0.2,2.6-0.2c1.9,0,3.4,0.7,3.4,2.4C460.3,96.7,459.6,98,458.1,98.5z
						 M456.6,94.6c-0.2,0-0.8,0-1,0l-0.4,2.5c0.1,0,0.8,0,0.9,0c1.3,0,2-0.3,2-1.6C458.1,94.8,457.6,94.6,456.6,94.6z"/>
					<path class="st3" d="M469.3,96.9l-0.3,1.5c-0.5,3-2.1,4.1-4.5,4.1c-1.8,0-3.1-1-3.1-3.1c0-0.3,0-0.6,0.1-1l0.3-1.5
						c0.6-3.2,2.4-4.1,4.5-4.1c1.7,0,3.1,0.9,3.1,3.1C469.4,96.2,469.4,96.5,469.3,96.9z M465.9,94.7c-1.1,0-1.7,0.6-2,2.2l-0.3,1.5
						c-0.1,0.3-0.1,0.6-0.1,0.9c0,1,0.4,1.3,1.3,1.3c1.1,0,1.7-0.7,2-2.2l0.3-1.5c0.1-0.3,0.1-0.6,0.1-0.8
						C467.2,95.1,466.8,94.7,465.9,94.7z"/>
				</g>
				<g>
					<path class="st5" d="M278.3,84.4H277c-0.2,0-0.4-0.2-0.4-0.5V66.6c0-0.2,0.2-0.5,0.4-0.5h1.4c0.2,0,0.4,0.2,0.4,0.5v17.3
						C278.8,84.1,278.6,84.4,278.3,84.4z"/>
					<path class="st5" d="M291.2,84.4h-1.2c-0.3,0-0.5-0.2-0.5-0.5v-8.1c0-2.5-0.8-3.2-2.7-3.2c-1,0-2.2,0.4-3.3,1v10.4
						c0,0.2-0.2,0.5-0.5,0.5h-1.2c-0.2,0-0.5-0.2-0.5-0.5V71.3c0-0.3,0.2-0.5,0.5-0.5h1.2c0.3,0,0.5,0.2,0.5,0.5v0.5
						c1.4-0.8,2.5-1.1,3.9-1.1c2.9,0,4.3,1.8,4.3,5.1v8.1C291.7,84.1,291.5,84.4,291.2,84.4z"/>
					<path class="st5" d="M304.6,72.5l-0.9,0.2c0.4,0.5,0.8,1.2,0.8,2.5v0.2c0,2.7-1.7,4.2-5.5,4.2c-1.3,0-2.1-0.2-2.9-0.5
						c-0.4,0.2-0.6,0.5-0.6,0.8c0,0.4,0.2,0.6,0.8,0.8l3.7,0.9c2.4,0.6,4.7,1.3,4.7,3.6v0.2c0,2.4-1.6,3.8-5.6,3.8
						c-3.9,0-5.7-1.5-5.7-3.9v-0.2c0-1.4,0.7-2.5,1.5-3.1l-0.2-0.1c-0.8-0.3-1.1-1.2-1.1-1.9v0c0-0.7,0.3-1.4,1-1.8
						c-0.8-0.7-1.1-1.6-1.1-2.9v-0.2c0-2.2,1.2-4.4,5.5-4.4h5.4c0.3,0,0.6,0.2,0.6,0.5V72C305,72.3,304.9,72.4,304.6,72.5z
						 M302.6,85.3c0-1-0.8-1.4-3-1.9l-2.8-0.7c-0.7,0.6-1.2,1.2-1.2,2.5v0.2c0,1.4,0.8,2.2,3.5,2.2c2.8,0,3.4-0.8,3.4-2.1V85.3z
						 M302.4,75.2c0-1.5-0.7-2.6-3.3-2.6c-2.8,0-3.3,1.3-3.3,2.6v0.2c0,1.1,0.5,2.5,3.3,2.5c2.7,0,3.3-1,3.3-2.5V75.2z"/>
					<path class="st5" d="M316.3,78.3h-8.2v0.3c0,2.9,1.2,4,3.4,4c1.4,0,3.2-0.1,4.4-0.3c0,0,0.1,0,0.1,0c0.2,0,0.4,0.1,0.4,0.3v0.8
						c0,0.3-0.1,0.5-0.5,0.6c-1.4,0.3-2.8,0.4-4.4,0.4c-2.8,0-5.6-1.3-5.6-5.9v-2.2c0-3.5,1.9-5.8,5.5-5.8c3.6,0,5.4,2.3,5.4,5.8
						v1.3C316.8,78.1,316.6,78.3,316.3,78.3z M314.6,76.4c0-2.8-1.1-3.9-3.2-3.9c-2.1,0-3.3,1.2-3.3,3.9v0.2h6.5V76.4z"/>
					<path class="st5" d="M328.4,84.4h-1.2c-0.3,0-0.5-0.2-0.5-0.5v-8.1c0-2.5-0.8-3.2-2.7-3.2c-1,0-2.2,0.4-3.3,1v10.4
						c0,0.2-0.2,0.5-0.5,0.5H319c-0.2,0-0.5-0.2-0.5-0.5V71.3c0-0.3,0.2-0.5,0.5-0.5h1.2c0.3,0,0.5,0.2,0.5,0.5v0.5
						c1.4-0.8,2.5-1.1,3.9-1.1c3,0,4.3,1.8,4.3,5.1v8.1C328.8,84.1,328.6,84.4,328.4,84.4z"/>
					<path class="st5" d="M333,68.7h-1.3c-0.3,0-0.5-0.2-0.5-0.5v-2c0-0.3,0.2-0.5,0.5-0.5h1.3c0.3,0,0.5,0.2,0.5,0.5v2
						C333.4,68.5,333.2,68.7,333,68.7z M332.9,84.4h-1.2c-0.3,0-0.5-0.2-0.5-0.5V71.3c0-0.3,0.2-0.5,0.5-0.5h1.2
						c0.3,0,0.5,0.2,0.5,0.5v12.5C333.4,84.1,333.2,84.4,332.9,84.4z"/>
					<path class="st5" d="M345.8,78.3h-8.2v0.3c0,2.9,1.2,4,3.4,4c1.4,0,3.2-0.1,4.4-0.3c0.1,0,0.1,0,0.1,0c0.2,0,0.4,0.1,0.4,0.3
						v0.8c0,0.3-0.1,0.5-0.5,0.6c-1.4,0.3-2.8,0.4-4.4,0.4c-2.8,0-5.6-1.3-5.6-5.9v-2.2c0-3.5,1.9-5.8,5.5-5.8
						c3.6,0,5.4,2.3,5.4,5.8v1.3C346.2,78.1,346.1,78.3,345.8,78.3z M344,76.4c0-2.8-1.1-3.9-3.2-3.9c-2.1,0-3.3,1.2-3.3,3.9v0.2
						h6.5V76.4z"/>
					<path class="st5" d="M353.5,72.5c-1.1,0-2.2,0.3-3.4,1v10.3c0,0.2-0.2,0.5-0.5,0.5h-1.2c-0.2,0-0.5-0.2-0.5-0.5V71.3
						c0-0.3,0.2-0.5,0.5-0.5h1.2c0.3,0,0.5,0.2,0.5,0.5v0.5c1.2-0.9,2.4-1.2,3.5-1.2c0.3,0,0.5,0.1,0.5,0.4v1
						C354,72.4,353.9,72.5,353.5,72.5z"/>
					<path class="st5" d="M360,65.6l-2.8,3.1c-0.2,0.2-0.3,0.4-0.6,0.4h-1.3c-0.1,0-0.2-0.1-0.2-0.2c0-0.1,0-0.2,0.1-0.2l2.4-3
						c0.2-0.3,0.3-0.4,0.6-0.4h1.6c0.2,0,0.3,0,0.3,0.2C360.1,65.4,360.1,65.5,360,65.6z M357.1,84.4h-1.2c-0.3,0-0.5-0.2-0.5-0.5
						V71.3c0-0.3,0.2-0.5,0.5-0.5h1.2c0.3,0,0.5,0.2,0.5,0.5v12.5C357.6,84.1,357.3,84.4,357.1,84.4z"/>
					<path class="st5" d="M368.9,84.4h-1.1c-0.3,0-0.5-0.2-0.5-0.5v-0.5c-1.2,0.7-2.4,1.2-3.8,1.2c-2.1,0-4-0.9-4-4v-0.3
						c0-2.7,1.5-4,5.9-4h1.8v-1c0-2.1-0.7-2.8-2.6-2.8c-1.6,0-2.8,0.1-3.8,0.2c-0.1,0-0.1,0-0.1,0c-0.2,0-0.4-0.1-0.4-0.4v-0.9
						c0-0.3,0.2-0.4,0.5-0.5c1-0.2,2.1-0.3,3.8-0.3c3.4,0,4.8,1.7,4.8,4.6v8.6C369.4,84.1,369.2,84.4,368.9,84.4z M367.2,77.8h-1.8
						c-3,0-3.8,0.7-3.8,2.4v0.3c0,1.8,0.8,2.2,2.3,2.2c1.1,0,2.1-0.3,3.3-1V77.8z"/>
					<path class="st5" d="M385,84.1c-1.4,0.3-2.8,0.4-4.2,0.4c-3.4,0-5-2.2-5-5.6v-1.6c0-3.6,1.6-5.6,5-5.6c0.7,0,1.8,0.1,2.7,0.2
						v-4.2c0-0.2,0.2-0.4,0.4-0.4h1.2c0.2,0,0.4,0.2,0.4,0.4v15.9C385.5,83.9,385.4,84.1,385,84.1z M383.4,73.6
						c-0.8-0.1-1.9-0.2-2.7-0.2c-2.2,0-3,1.4-3,3.8v1.6c0,2.5,0.7,3.9,3,3.9c0.8,0,1.9-0.1,2.7-0.1V73.6z"/>
					<path class="st5" d="M396.6,78.7H389v0.3c0,2.7,1.1,3.7,3.2,3.7c1.3,0,3-0.1,4.1-0.3c0,0,0.1,0,0.1,0c0.2,0,0.4,0.1,0.4,0.3
						v0.8c0,0.3-0.1,0.5-0.5,0.5c-1.3,0.3-2.6,0.4-4.1,0.4c-2.6,0-5.2-1.2-5.2-5.5V77c0-3.3,1.8-5.3,5.1-5.3c3.3,0,5,2.1,5,5.3v1.2
						C397.1,78.5,396.9,78.7,396.6,78.7z M395,77c0-2.6-1-3.6-3-3.6c-2,0-3.1,1.1-3.1,3.6v0.2h6L395,77L395,77z"/>
					<path class="st5" d="M412.2,84.4h-1.1c-0.3,0-0.5-0.2-0.5-0.5V70.4c0,0,0-0.1,0-0.1c0,0,0,0,0,0l-3.3,6.7
						c-0.2,0.5-0.5,0.7-1,0.7h-1c-0.6,0-0.8-0.2-1-0.7l-3.3-6.7c0,0,0,0,0,0c0,0,0,0,0,0.1v13.5c0,0.3-0.2,0.5-0.5,0.5h-1.1
						c-0.3,0-0.5-0.2-0.5-0.5V68.1c0-0.4,0.3-0.7,0.7-0.7h1.5c0.4,0,0.6,0.1,0.7,0.4l3.8,7.8c0.1,0.2,0.2,0.3,0.3,0.3
						c0.1,0,0.2,0,0.3-0.3l3.8-7.8c0.1-0.3,0.3-0.4,0.7-0.4h1.5c0.4,0,0.7,0.3,0.7,0.7v15.8C412.7,84.2,412.5,84.4,412.2,84.4z"/>
					<path class="st5" d="M424,84.4h-1.1c-0.3,0-0.4-0.2-0.4-0.5v-0.4c-1.3,0.7-2.3,1-3.6,1c-2.7,0-4-1.7-4-4.7v-7.5
						c0-0.3,0.2-0.5,0.5-0.5h1.1c0.3,0,0.5,0.2,0.5,0.5v7.5c0,2.3,0.8,3,2.5,3c1,0,2-0.4,3.1-0.9v-9.6c0-0.2,0.2-0.5,0.5-0.5h1.1
						c0.2,0,0.4,0.2,0.4,0.5v11.6C424.4,84.2,424.3,84.4,424,84.4z"/>
					<path class="st5" d="M435.6,78.7H428v0.3c0,2.7,1.1,3.7,3.2,3.7c1.3,0,3-0.1,4.1-0.3c0,0,0.1,0,0.1,0c0.2,0,0.4,0.1,0.4,0.3
						v0.8c0,0.3-0.1,0.5-0.5,0.5c-1.3,0.3-2.6,0.4-4.1,0.4c-2.6,0-5.2-1.2-5.2-5.5V77c0-3.3,1.8-5.3,5.1-5.3c3.3,0,5,2.1,5,5.3v1.2
						C436.1,78.5,435.9,78.7,435.6,78.7z M434,77c0-2.6-1-3.6-3-3.6c-2,0-3.1,1.1-3.1,3.6v0.2h6L434,77L434,77z"/>
					<path class="st5" d="M441.3,84.5c-0.8,0-2.5-0.1-3.6-0.3c-0.3-0.1-0.5-0.2-0.5-0.5v-0.8c0-0.2,0.2-0.3,0.4-0.3c0,0,0.1,0,0.1,0
						c1.1,0.1,2.8,0.3,3.6,0.3c1.5,0,2.3-0.4,2.3-1.6c0-0.7-0.4-1.1-1.7-1.9l-2.3-1.4c-1.4-0.8-2.3-1.8-2.3-3.3c0-2.4,1.8-3,4.1-3
						c1.3,0,2.5,0.1,3.6,0.3c0.3,0,0.4,0.2,0.4,0.5v0.8c0,0.3-0.2,0.4-0.4,0.4c0,0,0,0-0.1,0c-0.8-0.1-2.3-0.2-3.5-0.2
						c-1.3,0-2.1,0.2-2.1,1.3c0,0.7,0.5,1.1,1.6,1.7l2.3,1.3c1.9,1.1,2.5,2.1,2.5,3.4C445.6,83.5,443.9,84.5,441.3,84.5z"/>
					<path class="st5" d="M453.1,84.4c-0.5,0.1-1,0.1-1.5,0.1c-2.1,0-3.1-0.5-3.1-3.1v-8l-2.2-0.3c-0.3,0-0.4-0.2-0.4-0.4v-0.6
						c0-0.3,0.2-0.4,0.4-0.4h2.2v-2.2c0-0.2,0.2-0.4,0.4-0.5l1.2-0.2c0,0,0,0,0.1,0c0.2,0,0.3,0.2,0.3,0.4v2.5h2.5
						c0.3,0,0.5,0.2,0.5,0.5v0.8c0,0.3-0.2,0.5-0.5,0.5h-2.5v8c0,1.3,0.3,1.4,1.2,1.4h1.3c0.3,0,0.5,0.1,0.5,0.3V84
						C453.5,84.2,453.4,84.4,453.1,84.4z"/>
					<path class="st5" d="M459.6,73.4c-1,0-2,0.3-3.1,1v9.5c0,0.2-0.2,0.5-0.5,0.5h-1.1c-0.2,0-0.4-0.2-0.4-0.5V72.3
						c0-0.3,0.2-0.5,0.4-0.5h1.1c0.3,0,0.4,0.2,0.4,0.5v0.5c1.1-0.8,2.2-1.1,3.2-1.1c0.3,0,0.5,0.1,0.5,0.4V73
						C460.1,73.3,459.9,73.4,459.6,73.4z"/>
					<path class="st5" d="M468.8,84.4h-1c-0.3,0-0.5-0.2-0.5-0.5v-0.5c-1.1,0.6-2.2,1.1-3.5,1.1c-1.9,0-3.7-0.8-3.7-3.7v-0.3
						c0-2.5,1.4-3.7,5.5-3.7h1.7V76c0-1.9-0.7-2.6-2.4-2.6c-1.5,0-2.6,0.1-3.5,0.2c0,0-0.1,0-0.1,0c-0.2,0-0.4-0.1-0.4-0.4v-0.8
						c0-0.3,0.2-0.4,0.5-0.4c0.9-0.2,2-0.3,3.5-0.3c3.2,0,4.4,1.6,4.4,4.3v8C469.2,84.2,469,84.4,468.8,84.4z M467.2,78.3h-1.7
						c-2.8,0-3.5,0.6-3.5,2.2v0.3c0,1.6,0.8,2.1,2.1,2.1c1,0,2-0.3,3.1-0.9V78.3z"/>
				</g>
			</g>
			<g>
				<path class="st6" d="M193.1,112.5l-10.7,25.6c-1.7,4-4.8,4.6-7.6,4.6s-5.8-0.6-6-4.6l-1.7-25.6v0c0-0.5,0.4-0.8,0.9-0.8h5.5
					c0.4,0,0.7,0.3,0.7,0.7l0.9,23.8c0,0.5,0.1,0.6,0.5,0.6c0.4,0,0.5-0.2,0.7-0.6l9.4-23.8c0.2-0.4,0.5-0.7,0.9-0.7h6
					c0.4,0,0.6,0.2,0.6,0.5C193.2,112.2,193.1,112.4,193.1,112.5z"/>
				<path class="st6" d="M203.3,112.4l-5.1,29.1c-0.1,0.5-0.5,0.8-0.9,0.8h-5.5c-0.4,0-0.6-0.3-0.6-0.6c0-0.1,0-0.1,0-0.2l5.1-29.1
					c0.1-0.5,0.4-0.8,0.9-0.8h5.5c0.4,0,0.7,0.2,0.7,0.6C203.3,112.3,203.3,112.4,203.3,112.4z"/>
				<path class="st6" d="M222.3,129.7l4.2,11.6c0,0.1,0.1,0.2,0.1,0.3c0,0.3-0.2,0.6-0.7,0.6h-6c-0.5,0-0.5-0.4-0.7-0.8l-3.7-10.4
					c0,0,0,0,0,0c-0.2,0-0.4,0-0.7,0c-0.9,0-2.1-0.1-2.9-0.1l-1.8,10.5c-0.1,0.5-0.5,0.8-1,0.8h-5.4c-0.4,0-0.7-0.3-0.7-0.7
					c0,0,0-0.1,0-0.1v0l4.9-27.7c0.2-1.4,0.9-1.8,2.2-2c2-0.3,5.5-0.5,8.5-0.5c6.2,0,10.8,2.3,10.8,7.9
					C229.3,124,227.1,128,222.3,129.7z M217.4,117.2c-0.6,0-2.7,0.1-3.2,0.1l-1.4,7.9c0.5,0,2.4,0.1,2.9,0.1c4,0,6.6-1,6.6-5.3
					C222.2,117.9,220.6,117.2,217.4,117.2z"/>
				<path class="st6" d="M254,112.4l-0.7,4.3c-0.1,0.5-0.6,0.8-1,0.8h-6.7l-4.2,24c-0.1,0.5-0.5,0.8-1,0.8H235
					c-0.4,0-0.7-0.3-0.7-0.7c0-0.1,0-0.1,0-0.2l4.2-24h-6.7c-0.4,0-0.7-0.2-0.7-0.6c0-0.1,0-0.1,0-0.2l0.7-4.3
					c0.1-0.5,0.5-0.8,1-0.8h20.5c0.4,0,0.7,0.3,0.7,0.7C254,112.3,254,112.4,254,112.4z"/>
				<path class="st6" d="M280.6,112.4l-3.3,18.4c-1.9,10.4-7.5,11.9-14,11.9c-5.8,0-10-2.7-10-9c0-0.9,0-1.9,0.2-2.9l3.3-18.4
					c0.1-0.5,0.5-0.8,0.9-0.8h5.4c0.4,0,0.7,0.3,0.7,0.7c0,0,0,0.1,0,0.1l-3.3,18.4c-0.2,0.9-0.2,1.7-0.2,2.4c0,2.5,1.2,3.6,4,3.6
					c3.7,0,5.2-1.8,5.9-6l3.3-18.4c0.1-0.5,0.5-0.8,1-0.8h5.4c0.4,0,0.7,0.2,0.7,0.7C280.6,112.3,280.6,112.4,280.6,112.4z"/>
				<path class="st6" d="M302.4,142.3h-5.7c-0.4,0-0.7-0.3-0.7-0.7l-0.3-6.8h-8.5l-2.7,6.8c-0.2,0.4-0.5,0.7-0.9,0.7h-5.9
					c-0.4,0-0.6-0.2-0.6-0.5c0-0.1,0-0.2,0.1-0.4l10.7-25.6c1.7-4,4.8-4.6,7.7-4.6c2.8,0,5.7,0.6,6,4.6l1.7,25.6v0
					C303.2,142,302.8,142.3,302.4,142.3z M295.1,117.7c0-0.4,0-0.6-0.4-0.6c-0.4,0-0.5,0.2-0.7,0.6l-4.5,11.4h6.2L295.1,117.7z"/>
				<path class="st6" d="M323.4,137.4l-0.7,3.8c-0.1,0.5-0.3,0.7-1,0.9c-1.4,0.3-4.7,0.5-6.9,0.5c-4.5,0-8.7-1.6-8.7-6.8
					c0-0.6,0.1-1.3,0.2-2.1l3.8-21.3c0.1-0.5,0.5-0.8,1-0.8h5.4c0.4,0,0.7,0.3,0.7,0.7c0,0.1,0,0.1,0,0.2l-3.8,21.3
					c-0.1,0.4-0.1,0.8-0.1,1.1c0,1.3,0.7,1.7,2.3,1.7h7.1c0.4,0,0.7,0.3,0.7,0.7C323.4,137.3,323.4,137.4,323.4,137.4z"/>
			</g>
			<g>
				<g>
					<g>
						<path class="st2" d="M470.3,139.1c0,1.8-1.5,3.3-3.3,3.3h-9.4c-1.8,0-3.3-1.5-3.3-3.3v-9.4c0-1.8,1.5-3.3,3.3-3.3h9.4
							c1.8,0,3.3,1.5,3.3,3.3V139.1z"/>
						<g>
							<path class="st7" d="M464.6,128.5H460c-2,0-3.7,1.7-3.7,3.7v4.6c0,2,1.7,3.7,3.7,3.7h4.6c2,0,3.7-1.7,3.7-3.7v-4.6
								C468.3,130.1,466.7,128.5,464.6,128.5z M467.2,136.3c0,1.6-1.3,3-3,3h-3.7c-1.6,0-3-1.3-3-3v-3.7c0-1.6,1.3-3,3-3h3.7
								c1.6,0,3,1.3,3,3V136.3z"/>
							<path class="st7" d="M462.5,131.3c-1.7,0-3.2,1.4-3.2,3.2s1.4,3.2,3.2,3.2c1.7,0,3.2-1.4,3.2-3.2S464.2,131.3,462.5,131.3z
								 M462.5,136.4c-1.1,0-1.9-0.9-1.9-1.9c0-1.1,0.9-1.9,1.9-1.9c1,0,1.9,0.9,1.9,1.9C464.4,135.5,463.5,136.4,462.5,136.4z"/>
							<circle class="st7" cx="465.4" cy="131.3" r="0.8"/>
						</g>
					</g>
				</g>
			</g>
			<path class="st4" d="M362.8,122.9h-1.6c-0.3,0-0.6-0.3-0.6-0.6v-2.5c0-0.3,0.3-0.6,0.6-0.6h1.6c0.3,0,0.6,0.3,0.6,0.6v2.5
				C363.4,122.6,363.1,122.9,362.8,122.9z"/>
			<path class="st4" d="M362.7,142.4h-1.5c-0.3,0-0.6-0.3-0.6-0.6v-15.6c0-0.3,0.3-0.6,0.6-0.6h1.5c0.3,0,0.6,0.3,0.6,0.6v15.6
				C363.3,142.1,363.1,142.4,362.7,142.4z"/>
			<path class="st4" d="M416.3,140.3v1.5c0,0.3-0.2,0.6-0.5,0.6h-12.6c-0.3,0-0.5-0.3-0.5-0.6v-1.5c0-0.3,0.2-0.6,0.5-0.6h12.6
				C416.1,139.7,416.3,140,416.3,140.3z"/>
			<path class="st4" d="M378.1,142.1c-1.9,0.4-3.8,0.5-5.6,0.5c-4.6,0-6.7-3-6.7-7.6v-2.2c0-4.8,2.2-7.5,6.7-7.5
				c0.9,0,2.4,0.1,3.6,0.3V120c0-0.3,0.2-0.6,0.6-0.6h1.6c0.3,0,0.6,0.2,0.6,0.6v21.4C378.7,141.8,378.6,142,378.1,142.1z
				 M376,127.9c-1-0.2-2.6-0.2-3.6-0.2c-3,0-4,1.9-4,5.1v2.2c0,3.3,0.9,5.2,4,5.2c1,0,2.5-0.1,3.6-0.2V127.9z"/>
			<path class="st4" d="M401,142.4h-1.5c-0.3,0-0.6-0.3-0.6-0.6V131c0-2.6-1.2-3.3-2.8-3.3c-1.1,0-2.4,0.4-3.6,0.8
				c0.2,0.7,0.3,1.5,0.3,2.4v10.9c0,0.3-0.2,0.6-0.6,0.6h-1.6c-0.3,0-0.5-0.3-0.5-0.6v-10.9c0-2.7-0.8-3.2-2.4-3.2
				c-1.1,0-2.5,0.6-3.7,1.2v12.9c0,0.3-0.2,0.6-0.6,0.6h-1.6c-0.3,0-0.5-0.3-0.5-0.6v-15.6c0-0.3,0.2-0.6,0.6-0.6h1.5
				c0.3,0,0.6,0.3,0.6,0.6v0.6c1.2-0.8,2.8-1.4,4.5-1.4c1.3,0,2.3,0.4,3.1,1.3c1.7-0.8,3.5-1.3,5.1-1.3c2.8,0,5,1.4,5,5.6v10.8
				C401.7,142.1,401.4,142.4,401,142.4z"/>
			<path class="st4" d="M429.6,142.4h-1.5c-0.3,0-0.6-0.3-0.6-0.6v-0.6c-1.7,0.9-3.1,1.4-4.9,1.4c-3.7,0-5.3-2.3-5.3-6.4v-10.1
				c0-0.3,0.3-0.6,0.6-0.6h1.5c0.3,0,0.6,0.3,0.6,0.6v10.1c0,3.1,1,4,3.4,4c1.3,0,2.7-0.5,4.1-1.2v-12.9c0-0.3,0.3-0.6,0.6-0.6h1.5
				c0.3,0,0.6,0.3,0.6,0.6v15.6C430.2,142.1,430,142.4,429.6,142.4z"/>
			<path class="st4" d="M445.9,126.3l-5.1,17.6c-0.9,3.3-2.1,4.5-5.6,4.5c-0.9,0-1.9-0.1-2.6-0.3c-0.4-0.1-0.6-0.2-0.6-0.5v-1.1
				c0-0.3,0.2-0.5,0.6-0.5c0,0,0.1,0,0.1,0c0.7,0.1,2.1,0.2,2.7,0.2c1.7,0,2.5-0.5,3-2.6l0.3-1.3h-0.4c-0.9,0-1.7-0.2-2.3-2.1
				l-4.1-14c0-0.1,0-0.2,0-0.2c0-0.3,0.2-0.5,0.6-0.5h1.7c0.2,0,0.5,0.2,0.5,0.5l3.6,13.3c0.2,0.6,0.4,0.7,0.6,0.7h0.5l3.7-14
				c0.1-0.2,0.3-0.5,0.6-0.5h1.7c0.3,0,0.5,0.2,0.5,0.5C445.9,126.1,445.9,126.2,445.9,126.3z"/>
		</g>
	</g>
</g>
</svg>
